# 3ds Max Wavefront OBJ Exporter v0.97b - (c)2007 guruware
# File Created: 25.09.2014 15:05:45

#
# object Box002
#

v  -0.0000 132.4047 11.7561
v  -0.0000 133.2014 11.9907
v  -60.0000 133.2014 11.9902
v  -60.0000 132.4047 11.8152
v  60.3372 133.2014 11.9924
v  60.3372 132.4047 11.8101
v  -0.0000 128.1733 8.4949
v  60.3372 128.1733 8.5083
v  -60.0000 128.1733 8.5747
v  -0.0000 126.4657 3.4620
v  60.3372 126.4657 3.2172
v  -60.0000 126.4657 3.3788
v  -0.0000 124.8112 -3.4094
v  60.3372 124.8112 -3.7021
v  -60.0000 124.8112 -3.5417
v  -0.0000 123.9477 -8.7229
v  60.3372 123.9477 -8.9987
v  -60.0000 123.9477 -8.8383
v  -0.0000 151.0164 12.2468
v  -60.0000 151.0164 12.2457
v  60.3372 151.0164 12.2463
v  0.0000 97.9942 -17.6731
v  60.3372 97.9942 -17.7073
v  -60.0000 97.9942 -17.6711
v  0.0000 74.1713 -20.4554
v  60.3372 74.1713 -20.5325
v  -60.0000 74.1713 -20.4693
v  -0.0000 48.0579 -18.7462
v  60.3372 48.0579 -18.8310
v  -60.0000 48.0579 -18.8223
v  -0.0000 38.6770 3.5433
v  60.3372 38.6770 3.3080
v  -60.0000 38.6770 3.6280
v  0.0000 36.4302 4.9586
v  60.3372 36.4302 4.7705
v  -60.0000 36.4302 5.0364
v  -0.0000 28.8040 7.1582
v  60.3372 28.8040 7.2336
v  60.3372 30.1705 7.4084
v  -0.0000 30.1705 7.4648
v  -60.0000 28.8040 7.0129
v  -60.0000 30.1705 7.5231
v  -0.0000 27.4652 5.6897
v  60.3372 27.4652 6.2073
v  -60.0000 27.4652 5.7400
v  -0.0000 27.3728 3.8157
v  60.3372 27.3728 3.8591
v  -60.0000 27.3728 3.8010
v  -0.0000 7.9337 3.9436
v  60.3372 7.9337 3.8423
v  -60.0000 7.9337 3.9370
v  -0.0000 2.9729 4.4818
v  60.3372 2.9729 4.6278
v  -60.0000 2.9729 4.4653
v  0.0000 -0.9131 6.8708
v  60.3372 -0.9131 7.0147
v  -60.0000 -0.9131 6.8708
v  -63.0746 30.1705 10.5864
v  -63.0746 28.8040 10.5700
v  -63.0746 37.3496 8.3166
v  -63.0746 48.9610 -15.4621
v  -63.0746 39.9264 6.9862
v  -63.0746 74.1713 -17.9549
v  -63.0746 97.9942 -14.7602
v  -63.0746 122.2272 -5.4723
v  -63.0746 123.4269 -0.8309
v  -63.0746 125.2288 6.1235
v  -63.0746 126.8954 12.2446
v  -63.0746 132.2601 15.8351
v  -63.0746 133.2014 15.9326
v  -63.0746 151.0164 16.1885
v  -63.0750 7.9337 10.3133
v  -63.0746 16.5500 10.5197
v  -72.3407 16.5500 10.5197
v  -72.3402 7.9337 10.3133
v  -72.3407 37.3496 8.3166
v  -72.3407 30.1705 10.5864
v  -72.3407 48.9610 -15.4621
v  -72.3407 39.9264 6.9862
v  -72.3407 74.1713 -17.9549
v  -72.3407 132.2601 15.8351
v  -72.3407 126.8954 12.2446
v  -60.0000 16.3225 5.7058
v  -60.5535 -0.9131 7.8826
v  -60.0000 7.7802 7.0422
v  -60.0000 16.3068 6.9929
v  -63.0747 1.2068 10.2596
v  -72.3407 28.8040 10.5700
v  -72.3407 125.2288 6.1235
v  -72.3407 123.4269 -0.8309
v  -75.4152 30.1705 7.5231
v  -75.4152 28.8040 7.0129
v  -75.4152 36.4302 5.0364
v  -75.4152 48.0579 -18.8223
v  -75.4152 38.6770 3.6280
v  -75.4152 74.1713 -20.4693
v  -72.3407 97.9942 -14.7602
v  -75.4152 97.9942 -17.6711
v  -72.3407 122.2272 -5.4723
v  -75.4152 123.9477 -8.8383
v  -75.4152 124.8112 -3.5417
v  -75.4152 126.4657 3.3788
v  -75.4152 128.1733 8.5747
v  -75.4152 132.4047 11.8152
v  -72.3407 133.2014 15.9326
v  -75.4152 133.2014 11.9902
v  -75.4152 151.0164 12.2457
v  -72.3407 151.0164 16.1885
v  -72.3405 1.2068 10.2596
v  -75.4152 16.3225 5.7058
v  -75.4152 27.4652 5.7400
v  -75.4152 27.3728 3.8010
v  -75.4152 7.9337 3.9370
v  -74.8618 -0.9131 7.8826
v  -75.4152 7.7802 7.0422
v  -75.4152 -0.9131 6.8708
v  -75.4152 16.3068 6.9929
v  -75.4152 2.9729 4.4653
# 118 vertices

vn 0.0001 -0.4540 0.8910
vn -0.0000 -0.1498 0.9887
vn 0.4488 -0.1052 0.8874
vn 0.4426 -0.3929 0.8060
vn -0.0004 -0.1196 0.9928
vn -0.0006 -0.4292 0.9032
vn -0.0000 -0.8137 0.5813
vn 0.0005 -0.8193 0.5734
vn 0.3942 -0.7717 0.4990
vn 0.0000 -0.9606 0.2778
vn 0.0012 -0.9629 0.2700
vn 0.2776 -0.9273 0.2512
vn 0.0002 -0.9803 0.1975
vn 0.0009 -0.9805 0.1967
vn 0.2692 -0.9451 0.1852
vn 0.0013 -0.7652 0.6437
vn 0.0013 -0.7620 0.6475
vn 0.3683 -0.6906 0.6224
vn -0.0000 -0.0144 0.9999
vn 0.4403 -0.0129 0.8977
vn -0.0000 -0.0143 0.9999
vn 0.0009 -0.2218 0.9751
vn 0.0008 -0.2189 0.9758
vn 0.3595 -0.2080 0.9096
vn 0.0002 -0.0257 0.9997
vn 0.0013 -0.0264 0.9996
vn 0.3318 -0.0278 0.9429
vn 0.0003 0.5805 0.8143
vn 0.0016 0.5790 0.8153
vn 0.3541 0.5283 0.7717
vn 0.0014 0.7624 0.6471
vn 0.0025 0.7670 0.6417
vn 0.3983 0.7259 0.5607
vn 0.0019 0.4541 0.8909
vn 0.0021 0.4681 0.8837
vn 0.4175 0.4081 0.8119
vn -0.0005 -0.5015 0.8651
vn -0.0041 -0.3824 0.9240
vn -0.0002 0.1347 0.9909
vn 0.0006 0.0798 0.9968
vn 0.5036 -0.3337 0.7969
vn 0.4256 -0.0025 0.9049
vn -0.0002 -0.9234 0.3840
vn -0.0038 -0.8869 0.4619
vn 0.8010 -0.5445 0.2488
vn -0.0004 -0.6871 0.7266
vn 0.0008 -0.6930 0.7209
vn 0.5795 -0.5603 0.5918
vn 0.0003 0.0569 0.9984
vn -0.0002 0.0767 0.9971
vn 0.6961 0.0405 0.7168
vn -0.0003 0.3243 0.9460
vn -0.0023 0.3467 0.9380
vn 0.6603 0.2435 0.7104
vn -0.0011 0.5238 0.8518
vn -0.0020 0.5234 0.8521
vn 0.0000 0.5263 0.8503
vn 0.3818 0.1211 0.9163
vn 0.4161 -0.0070 0.9093
vn 0.3898 0.3575 0.8487
vn 0.4357 0.5850 0.6840
vn 0.3621 0.6768 0.6409
vn 0.3483 -0.0237 0.9371
vn 0.3699 -0.2322 0.8996
vn 0.4509 -0.6941 0.5612
vn 0.2900 -0.9282 0.2330
vn 0.2743 -0.9296 0.2463
vn 0.3714 -0.7346 0.5678
vn 0.4134 -0.3032 0.8586
vn 0.4357 -0.0543 0.8985
vn 0.4372 -0.0129 0.8993
vn 0.3971 -0.0057 0.9178
vn 0.4128 -0.0126 0.9107
vn -0.4128 -0.0126 0.9107
vn -0.3971 -0.0057 0.9178
vn -0.3898 0.3575 0.8487
vn -0.3818 0.1211 0.9163
vn -0.4357 0.5850 0.6840
vn -0.3621 0.6768 0.6409
vn -0.3483 -0.0237 0.9371
vn -0.4134 -0.3032 0.8586
vn -0.3714 -0.7346 0.5678
vn 1.0000 0.0000 -0.0000
vn 0.6842 -0.2243 0.6939
vn 0.9332 -0.0071 0.3592
vn 0.9307 0.0059 0.3658
vn 0.9357 -0.0033 0.3528
vn 0.2834 -0.3311 0.9001
vn -0.4161 -0.0070 0.9093
vn -0.2743 -0.9296 0.2463
vn -0.2900 -0.9282 0.2330
vn -0.7161 -0.0129 0.6979
vn -0.8285 -0.0773 0.5547
vn -0.7449 0.2968 0.5975
vn -0.7263 0.3692 0.5798
vn -0.6881 0.5977 0.4114
vn -0.6360 -0.0254 0.7712
vn -0.3699 -0.2322 0.8996
vn -0.6846 -0.1643 0.7102
vn -0.4509 -0.6941 0.5612
vn -0.7505 -0.4647 0.4699
vn -0.5159 -0.8416 0.1602
vn -0.5298 -0.8216 0.2106
vn -0.6836 -0.6326 0.3641
vn -0.7601 -0.2997 0.5766
vn -0.4357 -0.0543 0.8985
vn -0.7863 -0.0749 0.6132
vn -0.7885 -0.0088 0.6149
vn -0.4372 -0.0129 0.8993
vn -0.2834 -0.3311 0.9001
vn -1.0000 0.0000 -0.0000
vn -0.6842 -0.2243 0.6939
vn -0.9307 0.0059 0.3658
vn -0.9332 -0.0071 0.3592
vn -0.9357 -0.0033 0.3528
# 115 vertex normals

vt 0.5085 0.8876 0.0000
vt 0.5085 0.8919 0.0000
vt 0.1991 0.8921 0.0000
vt 0.1991 0.8879 0.0000
vt 0.8196 0.8919 0.0000
vt 0.8196 0.8877 0.0000
vt 0.5085 0.8600 0.0000
vt 0.8196 0.8600 0.0000
vt 0.1991 0.8604 0.0000
vt 0.5085 0.8326 0.0000
vt 0.8196 0.8314 0.0000
vt 0.1991 0.8322 0.0000
vt 0.5085 0.7962 0.0000
vt 0.8196 0.7947 0.0000
vt 0.1991 0.7955 0.0000
vt 0.5085 0.7683 0.0000
vt 0.8196 0.7672 0.0000
vt 0.1991 0.7679 0.0000
vt 0.5085 0.9837 0.0000
vt 0.1992 0.9839 0.0000
vt 0.8196 0.9837 0.0000
vt 0.5084 0.6266 0.0000
vt 0.8194 0.6263 0.0000
vt 0.1991 0.6266 0.0000
vt 0.5084 0.5029 0.0000
vt 0.8194 0.5028 0.0000
vt 0.1990 0.5030 0.0000
vt 0.5083 0.3678 0.0000
vt 0.8194 0.3681 0.0000
vt 0.1990 0.3681 0.0000
vt 0.5084 0.2431 0.0000
vt 0.8195 0.2443 0.0000
vt 0.1990 0.2427 0.0000
vt 0.5084 0.2294 0.0000
vt 0.8195 0.2305 0.0000
vt 0.1990 0.2290 0.0000
vt 0.5085 0.1874 0.0000
vt 0.8195 0.1884 0.0000
vt 0.8195 0.1955 0.0000
vt 0.5084 0.1946 0.0000
vt 0.1991 0.1867 0.0000
vt 0.1991 0.1942 0.0000
vt 0.5085 0.1771 0.0000
vt 0.8195 0.1798 0.0000
vt 0.1991 0.1773 0.0000
vt 0.5085 0.1674 0.0000
vt 0.8195 0.1677 0.0000
vt 0.1991 0.1673 0.0000
vt 0.5085 0.0672 0.0000
vt 0.8196 0.0674 0.0000
vt 0.1992 0.0671 0.0000
vt 0.5085 0.0415 0.0000
vt 0.8196 0.0415 0.0000
vt 0.1992 0.0414 0.0000
vt 0.5086 0.0180 0.0000
vt 0.8196 0.0180 0.0000
vt 0.1992 0.0178 0.0000
vt 0.1116 0.1876 0.0000
vt 0.1117 0.1813 0.0000
vt 0.1357 0.1821 0.0000
vt 0.1335 0.1913 0.0000
vt 0.1348 0.2290 0.0000
vt 0.1117 0.2253 0.0000
vt 0.1132 0.3641 0.0000
vt 0.1114 0.2385 0.0000
vt 0.1329 0.2466 0.0000
vt 0.1356 0.3691 0.0000
vt 0.1118 0.4969 0.0000
vt 0.1318 0.4972 0.0000
vt 0.1122 0.6215 0.0000
vt 0.1333 0.6173 0.0000
vt 0.1147 0.7570 0.0000
vt 0.1396 0.7529 0.0000
vt 0.1126 0.7834 0.0000
vt 0.1324 0.7744 0.0000
vt 0.1133 0.8206 0.0000
vt 0.1329 0.8102 0.0000
vt 0.1114 0.8519 0.0000
vt 0.1333 0.8415 0.0000
vt 0.1123 0.8833 0.0000
vt 0.1361 0.8735 0.0000
vt 0.1124 0.8866 0.0000
vt 0.1373 0.8819 0.0000
vt 0.1404 0.9757 0.0000
vt 0.1142 0.9775 0.0000
vt 0.1111 0.0747 0.0000
vt 0.1116 0.1187 0.0000
vt 0.0640 0.1191 0.0000
vt 0.0633 0.0751 0.0000
vt 0.0646 0.2255 0.0000
vt 0.0642 0.1879 0.0000
vt 0.0632 0.3643 0.0000
vt 0.0650 0.2387 0.0000
vt 0.0653 0.4970 0.0000
vt 0.0657 0.8833 0.0000
vt 0.0666 0.8520 0.0000
vt 0.1421 0.1170 0.0000
vt 0.1505 0.0734 0.0000
vt 0.1516 0.1737 0.0000
vt 0.1418 0.1744 0.0000
vt 0.1251 0.0274 0.0000
vt 0.1316 0.0279 0.0000
vt 0.1342 0.0729 0.0000
vt 0.1356 0.1171 0.0000
vt 0.1459 0.0474 0.0000
vt 0.1319 0.0282 0.0000
vt 0.1098 0.0408 0.0000
vt 0.0640 0.1817 0.0000
vt 0.0647 0.8206 0.0000
vt 0.0654 0.7834 0.0000
vt 0.0423 0.1920 0.0000
vt 0.0399 0.1829 0.0000
vt 0.0415 0.2295 0.0000
vt 0.0408 0.3693 0.0000
vt 0.0435 0.2469 0.0000
vt 0.0453 0.4974 0.0000
vt 0.0654 0.6215 0.0000
vt 0.0443 0.6175 0.0000
vt 0.0633 0.7571 0.0000
vt 0.0383 0.7530 0.0000
vt 0.0456 0.7745 0.0000
vt 0.0451 0.8103 0.0000
vt 0.0447 0.8415 0.0000
vt 0.0419 0.8735 0.0000
vt 0.0656 0.8866 0.0000
vt 0.0407 0.8820 0.0000
vt 0.0377 0.9757 0.0000
vt 0.0639 0.9775 0.0000
vt 0.0634 0.0414 0.0000
vt 0.0334 0.1181 0.0000
vt 0.0336 0.1755 0.0000
vt 0.0237 0.1750 0.0000
vt 0.0244 0.0748 0.0000
vt 0.0476 0.0284 0.0000
vt 0.0405 0.0739 0.0000
vt 0.0405 0.0289 0.0000
vt 0.0400 0.1180 0.0000
vt 0.0274 0.0491 0.0000
vt 0.0400 0.0291 0.0000
# 139 texture coords

g Box002
s 1
f 1/1/1 2/2/2 3/3/3 4/4/4 
f 5/5/5 2/2/2 1/1/1 6/6/6 
f 7/7/7 8/8/8 6/6/6 1/1/1 
f 9/9/9 7/7/7 1/1/1 4/4/4 
f 10/10/10 11/11/11 8/8/8 7/7/7 
f 12/12/12 10/10/10 7/7/7 9/9/9 
f 13/13/13 14/14/14 11/11/11 10/10/10 
f 15/15/15 13/13/13 10/10/10 12/12/12 
f 16/16/16 17/17/17 14/14/14 13/13/13 
f 18/18/18 16/16/16 13/13/13 15/15/15 
f 19/19/19 20/20/20 3/3/3 2/2/2 
f 21/21/21 19/19/19 2/2/2 5/5/5 
f 22/22/22 23/23/23 17/17/17 16/16/16 
f 24/24/24 22/22/22 16/16/16 18/18/18 
f 25/25/25 26/26/26 23/23/23 22/22/22 
f 27/27/27 25/25/25 22/22/22 24/24/24 
f 28/28/28 29/29/29 26/26/26 25/25/25 
f 30/30/30 28/28/28 25/25/25 27/27/27 
f 31/31/31 32/32/32 29/29/29 28/28/28 
f 33/33/33 31/31/31 28/28/28 30/30/30 
f 31/31/31 34/34/34 35/35/35 32/32/32 
f 33/33/33 36/36/36 34/34/34 31/31/31 
f 37/37/37 38/38/38 39/39/39 40/40/40 
f 41/41/41 37/37/37 40/40/40 42/42/42 
f 43/43/43 44/44/44 38/38/38 37/37/37 
f 45/45/45 43/43/43 37/37/37 41/41/41 
f 46/46/46 47/47/47 44/44/44 43/43/43 
f 48/48/48 46/46/46 43/43/43 45/45/45 
f 49/49/49 50/50/50 47/47/47 46/46/46 
f 51/51/51 49/49/49 46/46/46 48/48/48 
f 52/52/52 53/53/53 50/50/50 49/49/49 
f 54/54/54 52/52/52 49/49/49 51/51/51 
f 55/55/55 56/56/56 53/53/53 52/52/52 
f 54/54/54 57/57/57 55/55/55 52/52/52 
f 58/58/58 59/59/59 41/60/41 42/61/42 
f 42/61/42 36/62/36 60/63/60 58/58/58 
f 61/64/61 62/65/62 33/66/33 30/67/30 
f 63/68/63 61/64/61 30/67/30 27/69/27 
f 64/70/64 63/68/63 27/69/27 24/71/24 
f 65/72/65 64/70/64 24/71/24 18/73/18 
f 66/74/66 65/72/65 18/73/18 15/75/15 
f 67/76/67 66/74/66 15/75/15 12/77/12 
f 68/78/68 67/76/67 12/77/12 9/79/9 
f 69/80/69 68/78/68 9/79/9 4/81/4 
f 70/82/70 69/80/69 4/81/4 3/83/3 
f 20/84/20 71/85/71 70/82/70 3/83/3 
f 72/86/72 73/87/73 74/88/74 75/89/75 
f 60/63/60 76/90/76 77/91/77 58/58/58 
f 61/64/61 78/92/78 79/93/79 62/65/62 
f 63/68/63 80/94/80 78/92/78 61/64/61 
f 69/80/69 81/95/81 82/96/82 68/78/68 
f 83/97/83 51/98/51 48/99/48 45/100/45 
f 84/101/84 57/102/85 85/103/86 72/86/72 
f 72/86/72 85/103/86 86/104/87 73/87/73 
f 59/59/59 73/87/73 86/104/87 41/60/41 
f 86/104/87 83/97/83 45/100/45 41/60/41 
f 83/97/83 86/104/87 85/103/86 51/98/51 
f 54/105/54 85/103/86 57/102/85 57/106/57 
f 40/40/40 39/39/39 35/35/35 34/34/34 
f 42/42/42 40/40/40 34/34/34 36/36/36 
f 36/62/36 33/66/33 62/65/62 60/63/60 
f 62/65/62 79/93/79 76/90/76 60/63/60 
f 54/105/54 51/98/51 85/103/86 
f 72/86/72 87/107/88 84/101/84 
f 73/87/73 59/59/59 88/108/89 74/88/74 
f 59/59/59 58/58/58 77/91/77 88/108/89 
f 67/76/67 89/109/90 90/110/91 66/74/66 
f 77/91/77 91/111/92 92/112/93 88/108/89 
f 91/111/92 77/91/77 76/90/76 93/113/94 
f 78/92/78 94/114/95 95/115/96 79/93/79 
f 80/94/80 96/116/97 94/114/95 78/92/78 
f 97/117/98 98/118/99 96/116/97 80/94/80 
f 99/119/100 100/120/101 98/118/99 97/117/98 
f 90/110/91 101/121/102 100/120/101 99/119/100 
f 89/109/90 102/122/103 101/121/102 90/110/91 
f 82/96/82 103/123/104 102/122/103 89/109/90 
f 81/95/81 104/124/105 103/123/104 82/96/82 
f 105/125/106 106/126/107 104/124/105 81/95/81 
f 107/127/108 106/126/107 105/125/106 108/128/109 
f 87/107/88 72/86/72 75/89/75 109/129/110 
f 80/94/80 63/68/63 64/70/64 97/117/98 
f 70/82/70 71/85/71 108/128/109 105/125/106 
f 110/130/111 111/131/111 112/132/111 113/133/111 
f 114/134/112 75/89/75 115/135/113 116/136/114 
f 75/89/75 74/88/74 117/137/115 115/135/113 
f 88/108/89 92/112/93 117/137/115 74/88/74 
f 117/137/115 92/112/93 111/131/111 110/130/111 
f 110/130/111 113/133/111 115/135/113 117/137/115 
f 116/136/114 115/135/113 118/138/111 116/139/83 
f 93/113/94 76/90/76 79/93/79 95/115/96 
f 84/101/84 87/107/88 109/129/110 114/134/112 
f 118/138/111 115/135/113 113/133/111 
f 75/89/75 114/134/112 109/129/110 
f 65/72/65 99/119/100 97/117/98 64/70/64 
f 65/72/65 66/74/66 90/110/91 99/119/100 
f 67/76/67 68/78/68 82/96/82 89/109/90 
f 70/82/70 105/125/106 81/95/81 69/80/69 
# 93 polygons - 4 triangles

